<svg xmlns="http://www.w3.org/2000/svg" width="32" height="31.75" viewBox="0 0 32 31.75">
  <defs>
    <style>
      .cls-1 {
        fill: #9965e3;
        fill-rule: evenodd;
      }
    </style>
  </defs>
  <path id="Vector" class="cls-1" d="M1289.48,91.656a12.844,12.844,0,0,0-2.02-17.428,13.072,13.072,0,0,0-17.66.676,12.843,12.843,0,0,0-.66,17.531,13.059,13.059,0,0,0,17.55,2h0a1.637,1.637,0,0,0,.2.228l7.69,7.645a2.028,2.028,0,0,0,1.42.582,1.99,1.99,0,0,0,1.41-.581,1.967,1.967,0,0,0,0-2.809l-7.7-7.645a1.413,1.413,0,0,0-.23-0.2v0Zm0.52-7.633a10.726,10.726,0,0,1-.84,4.18,10.932,10.932,0,0,1-5.95,5.911,11.056,11.056,0,0,1-11.99-2.368,10.871,10.871,0,0,1,0-15.445,11.061,11.061,0,0,1,15.56,0,10.893,10.893,0,0,1,3.22,7.723h0Z" transform="translate(-1266 -71.125)"/>
</svg>
